<svg class="railroad-diagram" height="111" viewBox="0 0 953.0 111" width="953.0">
<g transform="translate(.5 .5)">
<g>
<path d="M20 53v20m10 -20v20m-10 -10h20" /></g><g>
<path d="M40 63h0.0" /><path d="M913.0 63h0.0" /><path d="M40.0 63a10 10 0 0 0 10 -10v-23a10 10 0 0 1 10 -10h698.0" /><path d="M778.0 83h115.0a10 10 0 0 0 10 -10v0a10 10 0 0 1 10 -10" /><path d="M40.0 63h10" /><g>
<path d="M50.0 63h10.0" /><path d="M748.0 63h10.0" /><g>
<path d="M60.0 63h0.0" /><path d="M384.0 63h0.0" /><rect class="group-box" height="38" rx="10" ry="10" width="324" x="60" y="44"></rect><g>
<path d="M60.0 63h10.0" /><path d="M374.0 63h10.0" /><g class="non-terminal ">
<path d="M70.0 63h0.0" /><path d="M175.0 63h0.0" /><rect height="22" width="105" x="70" y="52"></rect><text x="122.5" y="67">&apos;and&apos; term</text></g><path d="M175.0 63h10" /><path d="M185.0 63h10" /><g class="terminal ">
<path d="M195.0 63h0.0" /><path d="M249.0 63h0.0" /><rect height="22" rx="10" ry="10" width="54" x="195" y="52"></rect><text x="222" y="67">&apos;or&apos;</text></g><path d="M249.0 63h10" /><path d="M259.0 63h10" /><g class="non-terminal ">
<path d="M269.0 63h0.0" /><path d="M374.0 63h0.0" /><rect height="22" width="105" x="269" y="52"></rect><text x="321.5" y="67">&apos;and&apos; term</text></g></g><g class="non-terminal ">
<path d="M60.0 36h0.0" /><path d="M147.0 36h0.0" /><text class="comment" x="103.5" y="41">[LOOKAHEAD]</text></g></g><path d="M384.0 63h10" /><path d="M394.0 63h10" /><g>
<path d="M404.0 63h0.0" /><path d="M748.0 63h0.0" /><rect class="group-box" height="47" rx="10" ry="10" width="344" x="404" y="44"></rect><g>
<path d="M404.0 63h10.0" /><path d="M738.0 63h10.0" /><g class="non-terminal ">
<path d="M414.0 63h0.0" /><path d="M519.0 63h0.0" /><rect height="22" width="105" x="414" y="52"></rect><text x="466.5" y="67">&apos;and&apos; term</text></g><path d="M519.0 63h10" /><path d="M529.0 63h10" /><g>
<path d="M539.0 63h0.0" /><path d="M738.0 63h0.0" /><path d="M539.0 63h10" /><g>
<path d="M549.0 63h0.0" /><path d="M728.0 63h0.0" /><g class="terminal ">
<path d="M549.0 63h0.0" /><path d="M603.0 63h0.0" /><rect height="22" rx="10" ry="10" width="54" x="549" y="52"></rect><text x="576" y="67">&apos;or&apos;</text></g><path d="M603.0 63h10" /><path d="M613.0 63h10" /><g class="non-terminal ">
<path d="M623.0 63h0.0" /><path d="M728.0 63h0.0" /><rect height="22" width="105" x="623" y="52"></rect><text x="675.5" y="67">&apos;and&apos; term</text></g></g><path d="M728.0 63h10" /><path d="M549.0 63a10 10 0 0 0 -10 10v0a10 10 0 0 0 10 10" /><g>
<path d="M549.0 83h179.0" /></g><path d="M728.0 83a10 10 0 0 0 10 -10v0a10 10 0 0 0 -10 -10" /></g></g></g></g><path d="M758.0 63a10 10 0 0 1 10 10v0a10 10 0 0 0 10 10" /><path d="M758.0 20a10 10 0 0 1 10 10v23a10 10 0 0 0 10 10" /><g class="non-terminal ">
<path d="M778.0 63h10.0" /><path d="M893.0 63h10.0" /><rect height="22" width="105" x="788" y="52"></rect><text x="840.5" y="67">&apos;and&apos; term</text></g><path d="M903.0 63h10" /></g><path d="M 913.0 63 h 20 m -10 -10 v 20 m 10 -20 v 20"></path></g></svg>